<svg style="" width="69.750000" height="93.000000" version="1.1" xmlns="http://www.w3.org/2000/svg">
<path d="M58.125000 11.625000 L52.312500 11.625000 C52.312500 8.416000 50.617204 5.676281 47.226562 3.405762 C43.835921 1.135243 39.718774 -0.000000 34.875000 -0.000000 C30.031226 -0.000000 25.914079 1.135243 22.523438 3.405762 C19.132796 5.676281 17.437500 8.416000 17.437500 11.625000 L11.625000 11.625000 C8.416000 11.625000 5.676281 12.760243 3.405762 15.030762 C1.135243 17.301281 0.000000 20.041000 0.000000 23.250000 L0.000000 81.375000 C0.000000 84.584000 1.135243 87.323719 3.405762 89.594238 C5.676281 91.864757 8.416000 93.000000 11.625000 93.000000 L58.125000 93.000000 C61.334000 93.000000 64.073719 91.864757 66.344238 89.594238 C68.614757 87.323719 69.750000 84.584000 69.750000 81.375000 L69.750000 23.250000 C69.750000 20.041000 68.614757 17.301281 66.344238 15.030762 C64.073719 12.760243 61.334000 11.625000 58.125000 11.625000 Z M34.875000 5.812500 C38.084000 5.812500 40.823719 6.281734 43.094238 7.220215 C45.364757 8.158696 46.500000 9.626943 46.500000 11.625000 L23.250000 11.625000 C23.250000 9.626943 24.385243 8.158696 26.655762 7.220215 C28.926281 6.281734 31.666000 5.812500 34.875000 5.812500 Z M63.937500 81.375000 C63.937500 82.949227 63.362310 84.311518 62.211914 85.461914 C61.061518 86.612310 59.699227 87.187500 58.125000 87.187500 L11.625000 87.187500 C10.050773 87.187500 8.688482 86.612310 7.538086 85.461914 C6.387690 84.311518 5.812500 82.949227 5.812500 81.375000 L5.812500 75.562500 L63.937500 75.562500 L63.937500 81.375000 Z M63.937500 69.750000 L5.812500 69.750000 L5.812500 23.250000 C5.812500 21.675773 6.387690 20.313482 7.538086 19.163086 C8.688482 18.012690 10.050773 17.437500 11.625000 17.437500 L17.437500 17.437500 L17.437500 34.875000 L23.250000 34.875000 L23.250000 17.437500 L46.500000 17.437500 L46.500000 34.875000 L52.312500 34.875000 L52.312500 17.437500 L58.125000 17.437500 C59.699227 17.437500 61.061518 18.012690 62.211914 19.163086 C63.362310 20.313482 63.937500 21.675773 63.937500 23.250000 L63.937500 69.750000 Z M81.375000 87.187500" style="fill:black"/>
</svg>