<svg style="" width="77.560547" height="69.750000" version="1.1" xmlns="http://www.w3.org/2000/svg">
<path d="M75.380859 11.988281 L52.130859 0.363281 C51.888671 0.242187 51.616212 0.151367 51.313477 0.090820 C51.010741 0.030273 50.708009 -0.000000 50.405273 -0.000000 C50.102538 -0.000000 49.799806 0.030273 49.497070 0.090820 C49.194334 0.151367 48.921876 0.272460 48.679688 0.454102 L48.679688 0.363281 L27.155273 11.170898 L5.630859 0.363281 C5.388671 0.242187 5.116212 0.151367 4.813477 0.090820 C4.510741 0.030273 4.208009 -0.000000 3.905273 -0.000000 C2.815424 -0.000000 1.892094 0.378414 1.135254 1.135254 C0.378414 1.892094 0.000000 2.815424 0.000000 3.905273 C0.000000 3.905273 0.000000 3.905273 0.000000 3.905273 C0.000000 3.905273 0.000000 3.905273 0.000000 3.905273 L0.000000 3.905273 L0.000000 54.219727 C0.000000 54.946293 0.196775 55.627438 0.590332 56.263184 C0.983889 56.898929 1.513669 57.398436 2.179688 57.761719 L25.429688 69.386719 C25.671876 69.507813 25.944334 69.598633 26.247070 69.659180 C26.549806 69.719727 26.852538 69.750000 27.155273 69.750000 C27.458009 69.750000 27.760741 69.719727 28.063477 69.659180 C28.366212 69.598633 28.638671 69.477540 28.880859 69.295898 L28.880859 69.386719 L50.405273 58.579102 L71.929688 69.295898 C72.171876 69.477540 72.444334 69.598633 72.747070 69.659180 C73.049806 69.719727 73.352538 69.750000 73.655273 69.750000 C74.018557 69.750000 74.381834 69.704590 74.745117 69.613770 C75.108400 69.522949 75.441405 69.386720 75.744141 69.205078 L75.653320 69.205078 C76.258792 68.841795 76.728026 68.357425 77.061035 67.751953 C77.394045 67.146481 77.560547 66.510746 77.560547 65.844727 L77.560547 15.530273 C77.560547 14.803707 77.363771 14.122562 76.970215 13.486816 C76.576658 12.851071 76.046878 12.351564 75.380859 11.988281 Z M31.060547 17.891602 L46.500000 10.171875 L46.500000 51.858398 L31.060547 59.578125 L31.060547 17.891602 Z M7.810547 10.171875 L23.250000 17.891602 L23.250000 59.578125 L7.810547 51.858398 Z M69.750000 59.578125 L54.310547 51.858398 L54.310547 10.171875 L69.750000 17.891602 Z M85.280273 75.562500" style="fill:black"/>
</svg>