<svg width="79" height="79" viewBox="0 0 79 79" fill="none" xmlns="http://www.w3.org/2000/svg">
<g id="map pin 1" clip-path="url(#clip0_7_49)">
<path id="Vector" d="M39.5 58.625L43.4053 50.9053V31.0156C46.7354 30.1074 49.5054 28.2759 51.7153 25.521C53.9253 22.7661 55.0303 19.6026 55.0303 16.0303C55.0303 11.7314 53.5166 8.06838 50.4893 5.04102C47.4619 2.01366 43.7989 0.5 39.5 0.5C35.2012 0.5 31.5381 2.01366 28.5107 5.04102C25.4834 8.06838 23.9697 11.7314 23.9697 16.0303C23.9697 19.6026 25.0747 22.7661 27.2847 25.521C29.4946 28.2759 32.2646 30.1074 35.5947 31.0156V50.9053L39.5 58.625ZM31.7803 16.0303C31.7803 13.9111 32.5371 12.0947 34.0508 10.5811C35.5645 9.06737 37.3808 8.31055 39.5 8.31055C41.6192 8.31055 43.4355 9.06737 44.9492 10.5811C46.4629 12.0947 47.2197 13.9111 47.2197 16.0303C47.2197 18.1494 46.4629 19.9658 44.9492 21.4795C43.4355 22.9932 41.6192 23.75 39.5 23.75C37.3808 23.75 35.5645 22.9932 34.0508 21.4795C32.5371 19.9658 31.7803 18.1494 31.7803 16.0303ZM56.0293 33.7402L53.9404 41.1875C58.9658 42.5801 62.977 44.5024 65.9741 46.9546C68.9712 49.4068 70.4697 52.0254 70.4697 54.8105C70.4697 56.627 69.7129 58.4433 68.1992 60.2598C66.6855 62.1367 64.5664 63.8169 61.8418 65.3003C59.1172 66.7837 55.8477 67.9795 52.0332 68.8877C48.2187 69.7959 44.041 70.25 39.5 70.25C34.959 70.25 30.7813 69.7959 26.9668 68.8877C23.1523 67.9795 19.8828 66.7837 17.1582 65.3003C14.4336 63.8169 12.3145 62.1367 10.8008 60.2598C9.2871 58.4433 8.53027 56.627 8.53027 54.8105C8.53027 52.0254 10.0288 49.4068 13.0259 46.9546C16.023 44.5024 20.0342 42.5801 25.0596 41.1875L22.9707 33.7402C19.5195 34.6484 16.4317 35.8291 13.707 37.2822C10.9824 38.7354 8.65138 40.3701 6.71387 42.1865C4.77636 44.0029 3.29297 45.9707 2.26367 48.0898C1.23437 50.2695 0.719727 52.5098 0.719727 54.8105C0.719727 58.0195 1.71874 61.0469 3.7168 63.8926C5.71485 66.7383 8.46971 69.2056 11.9814 71.2944C15.4932 73.3833 19.5801 75.0332 24.2422 76.2441C28.9649 77.4551 34.0508 78.0605 39.5 78.0605C44.9492 78.0605 50.0351 77.4551 54.7578 76.2441C59.4199 75.0332 63.5068 73.3833 67.0186 71.2944C70.5303 69.2056 73.2851 66.7383 75.2832 63.8926C77.2813 61.0469 78.2803 58.0195 78.2803 54.8105C78.2803 52.5098 77.7656 50.2695 76.7363 48.0898C75.707 45.9707 74.2236 44.0029 72.2861 42.1865C70.3486 40.3701 68.0176 38.7354 65.293 37.2822C62.5683 35.8291 59.4805 34.6484 56.0293 33.7402Z" fill="black"/>
</g>
<defs>
<clipPath id="clip0_7_49">
<rect width="77.5605" height="77.5605" fill="white" transform="translate(0.719727 0.5)"/>
</clipPath>
</defs>
</svg>
